<svg width="100" height="100" viewBox="0 0 100 100" fill="none" xmlns="http://www.w3.org/2000/svg">
<mask id="mask0_14_6" style="mask-type:alpha" maskUnits="userSpaceOnUse" x="0" y="0" width="100" height="100">
<rect width="100" height="100" fill="#D9D9D9"/>
</mask>
<g mask="url(#mask0_14_6)">
<path d="M80.7473 93.9941H19.7073C17.8323 93.9941 16.1998 93.2476 14.8098 91.7544C13.4215 90.263 12.7273 88.5103 12.7273 86.4961V29.0925C12.7273 27.0784 13.4215 25.3256 14.8098 23.8342C16.1998 22.3411 17.8323 21.5945 19.7073 21.5945H30.1223C30.1223 15.6272 32.0148 10.5363 35.7998 6.32178C39.5848 2.10726 44.2898 0 49.9148 0C55.4698 0 60.2615 2.10726 64.2898 6.32178C68.3181 10.5363 70.3323 15.6272 70.3323 21.5945H80.7473C82.6223 21.5945 84.2548 22.3411 85.6448 23.8342C87.0331 25.3256 87.7273 27.0784 87.7273 29.0925V86.4961C87.7273 88.5103 87.0331 90.263 85.6448 91.7544C84.2548 93.2476 82.6223 93.9941 80.7473 93.9941ZM36.9973 21.5945H63.4573C63.4573 17.6414 62.1723 14.3032 59.6023 11.5801C57.0323 8.85693 53.9073 7.49536 50.2273 7.49536C46.5473 7.49536 43.4223 8.85693 40.8523 11.5801C38.2823 14.3032 36.9973 17.6414 36.9973 21.5945ZM80.7473 86.4961V29.0925H19.7073V86.4961H80.7473ZM50.2273 55.948C55.7823 55.948 60.5915 53.7843 64.6548 49.457C68.7165 45.1315 70.7473 39.9475 70.7473 33.905H63.7698C63.7698 37.9333 62.4323 41.3646 59.7573 44.1987C57.084 47.0329 53.9073 48.45 50.2273 48.45C46.5473 48.45 43.3706 47.0329 40.6973 44.1987C38.0223 41.3646 36.6848 37.9333 36.6848 33.905H29.7073C29.7073 39.9475 31.7381 45.1315 35.7998 49.457C39.8631 53.7843 44.6723 55.948 50.2273 55.948Z" fill="#2D2D2D"/>
<circle cx="73.6364" cy="22.7273" r="22.7273" fill="#E63946"/>
<path d="M74.9432 14.5455V32H72.8295V16.7614H72.7273L68.4659 19.5909V17.4432L72.8295 14.5455H74.9432Z" fill="white"/>
</g>
</svg>
