<svg width="100" height="100" viewBox="0 0 100 100" fill="none" xmlns="http://www.w3.org/2000/svg">
<mask id="mask0_4_120" style="mask-type:alpha" maskUnits="userSpaceOnUse" x="0" y="0" width="100" height="100">
<rect width="100" height="100" fill="#D9D9D9"/>
</mask>
<g mask="url(#mask0_4_120)">
<path d="M22.5 81.6666C19.375 78.5416 16.9278 74.9305 15.1583 70.8333C13.3861 66.7361 12.5 62.5 12.5 58.125C12.5 53.75 13.3333 49.4264 15 45.1541C16.6667 40.8847 19.375 36.875 23.125 33.125C25.5556 30.6944 28.5597 28.6111 32.1375 26.875C35.7125 25.1389 39.9472 23.7666 44.8417 22.7583C49.7389 21.7527 55.3306 21.1458 61.6167 20.9375C67.9 20.7291 74.9306 20.9722 82.7083 21.6666C83.2639 29.0277 83.4375 35.7986 83.2292 41.9791C83.0208 48.1597 82.4472 53.7319 81.5083 58.6958C80.5722 63.6625 79.2542 68.0028 77.5542 71.7166C75.8514 75.4333 73.75 78.5416 71.25 81.0416C67.5694 84.7222 63.6639 87.4125 59.5333 89.1125C55.4 90.8153 51.1806 91.6666 46.875 91.6666C42.3611 91.6666 37.9514 90.7819 33.6458 89.0125C29.3403 87.2403 25.625 84.7916 22.5 81.6666ZM34.1667 80C36.1806 81.1805 38.2472 82.0305 40.3667 82.55C42.4833 83.0722 44.6528 83.3333 46.875 83.3333C50.0694 83.3333 53.2292 82.6916 56.3542 81.4083C59.4792 80.1222 62.4653 78.0555 65.3125 75.2083C66.5625 73.9583 67.8292 72.2055 69.1125 69.95C70.3986 67.6916 71.5111 64.7389 72.45 61.0916C73.3861 57.4472 74.0972 53.0389 74.5833 47.8666C75.0694 42.6916 75.1389 36.5278 74.7917 29.375C71.3889 29.2361 67.5528 29.1833 63.2833 29.2166C59.0111 29.2528 54.7569 29.5833 50.5208 30.2083C46.2847 30.8333 42.2569 31.8403 38.4375 33.2291C34.6181 34.618 31.4931 36.5278 29.0625 38.9583C25.9375 42.0833 23.7847 45.1736 22.6042 48.2291C21.4236 51.2847 20.8333 54.2361 20.8333 57.0833C20.8333 61.1805 21.6139 64.7736 23.175 67.8625C24.7389 70.9541 26.1111 73.125 27.2917 74.375C30.2083 68.8194 34.0625 63.4889 38.8542 58.3833C43.6458 53.2805 49.2361 49.0972 55.625 45.8333C50.625 50.2083 46.2681 55.1555 42.5542 60.675C38.8375 66.1972 36.0417 72.6389 34.1667 80Z" fill="url(#paint0_linear_4_120)"/>
</g>
<defs>
<linearGradient id="paint0_linear_4_120" x1="47.9072" y1="20.8654" x2="47.9072" y2="91.6666" gradientUnits="userSpaceOnUse">
<stop offset="0.4375" stop-color="#FF894B"/>
<stop offset="1" stop-color="#00FE38" stop-opacity="0.32"/>
</linearGradient>
</defs>
</svg>
