<svg width="100" height="100" viewBox="0 0 100 100" fill="none" xmlns="http://www.w3.org/2000/svg">
<mask id="mask0_14_3" style="mask-type:alpha" maskUnits="userSpaceOnUse" x="0" y="0" width="100" height="100">
<rect width="100" height="100" fill="#D9D9D9"/>
</mask>
<g mask="url(#mask0_14_3)">
<path d="M49.8333 98.4701C42.0556 98.4701 34.9028 96.5678 28.375 92.7633C21.8472 88.9587 16.5 83.886 12.3333 77.5452V89.5182H4V62.6628H29V71.6146H18.6875C22.0208 76.9857 26.4139 81.3124 31.8667 84.5947C37.3167 87.8771 43.3056 89.5182 49.8333 89.5182C55.0417 89.5182 59.9208 88.4559 64.4708 86.3314C69.0181 84.2038 72.9764 81.3303 76.3458 77.7108C79.7125 74.0942 82.3861 69.8421 84.3667 64.9544C86.3445 60.0697 87.3333 54.8299 87.3333 49.235H95.6667C95.6667 56.0235 94.4695 62.4017 92.075 68.3695C89.6778 74.3374 86.3958 79.5593 82.2292 84.0352C78.0625 88.5112 73.2014 92.0352 67.6458 94.6073C62.0903 97.1825 56.1528 98.4701 49.8333 98.4701ZM46.0833 80.5664V74.7477C42.8195 73.9271 40.1639 72.4173 38.1167 70.2181C36.0667 68.016 34.5556 65.1245 33.5833 61.5438L40.4583 58.6344C41.2917 61.693 42.5944 63.9861 44.3667 65.5139C46.1361 67.0447 48.1667 67.8101 50.4583 67.8101C52.75 67.8101 54.7111 67.2312 56.3417 66.0734C57.975 64.9186 58.7917 63.1104 58.7917 60.6486C58.7917 58.4852 57.9417 56.7322 56.2417 55.3894C54.5389 54.0466 51.5 52.5174 47.125 50.8016C43.0278 49.235 40.025 47.3701 38.1167 45.2067C36.2056 43.0434 35.25 40.2086 35.25 36.7025C35.25 33.6439 36.2403 30.8644 38.2208 28.3639C40.1986 25.8663 42.8889 24.2445 46.2917 23.4985V17.9036H53.5833V23.4985C56.0833 23.7223 58.3583 24.804 60.4083 26.7436C62.4556 28.6831 63.8611 30.9584 64.625 33.5693L57.9583 36.4787C57.4028 34.7629 56.5 33.3276 55.25 32.1729C54 31.0151 52.2639 30.4362 50.0417 30.4362C47.6111 30.4362 45.7542 30.9957 44.4708 32.1147C43.1847 33.2336 42.5417 34.7629 42.5417 36.7025C42.5417 38.642 43.3403 40.1713 44.9375 41.2903C46.5347 42.4093 49.4167 43.7147 53.5833 45.2067C58.5833 47.1463 61.9167 49.4215 63.5833 52.0325C65.25 54.6434 66.0833 57.5155 66.0833 60.6486C66.0833 62.812 65.7361 64.7142 65.0417 66.3554C64.3472 67.9966 63.4278 69.3945 62.2833 70.5493C61.1361 71.7071 59.7986 72.6396 58.2708 73.3468C56.7431 74.0569 55.1111 74.5985 53.375 74.9715V80.5664H46.0833ZM4 49.235C4 42.4466 5.19861 36.0684 7.59583 30.1005C9.99028 24.1326 13.2708 18.9107 17.4375 14.4348C21.6042 9.9589 26.4653 6.43338 32.0208 3.85824C37.5764 1.28608 43.5139 0 49.8333 0C57.6111 0 64.7639 1.90226 71.2917 5.70679C77.8195 9.51131 83.1667 14.584 87.3333 20.9249V8.95182H95.6667V35.8073H70.6667V26.8555H80.9792C77.6458 21.4844 73.2528 17.1577 67.8 13.8753C62.35 10.593 56.3611 8.95182 49.8333 8.95182C44.625 8.95182 39.7472 10.0141 35.2 12.1387C30.65 14.2662 26.6917 17.1383 23.325 20.7548C19.9556 24.3743 17.2806 28.6264 15.3 33.5112C13.3222 38.3988 12.3333 43.6401 12.3333 49.235H4Z" fill="#2D2D2D"/>
</g>
</svg>
