<svg width="100" height="100" viewBox="0 0 100 100" fill="none" xmlns="http://www.w3.org/2000/svg">
<mask id="mask0_4_126" style="mask-type:alpha" maskUnits="userSpaceOnUse" x="0" y="0" width="100" height="100">
<rect width="100" height="100" fill="#D9D9D9"/>
</mask>
<g mask="url(#mask0_4_126)">
<path d="M38.3333 38.3334L47.6042 23.0209L41.4583 12.8125C40.625 11.4237 39.4278 10.7292 37.8667 10.7292C36.3028 10.7292 35.1042 11.4237 34.2708 12.8125L24.0625 29.7917L38.3333 38.3334ZM78.6458 66.6667L69.375 51.25L83.8542 42.9167L90.5208 54.0625C91.2847 55.2431 91.6847 56.5806 91.7208 58.075C91.7542 59.5667 91.4583 60.9028 90.8333 62.0834C90.1389 63.4723 89.1139 64.5834 87.7583 65.4167C86.4056 66.25 84.9305 66.6667 83.3333 66.6667H78.6458ZM66.6667 95.8334L50 79.1667L66.6667 62.5V70.8334H86.4583L80.4167 82.9167C79.6528 84.3056 78.6111 85.4167 77.2917 86.25C75.9722 87.0834 74.5139 87.5 72.9167 87.5H66.6667V95.8334ZM26.3542 87.5C24.9653 87.5 23.6972 87.1362 22.55 86.4084C21.4055 85.6778 20.5555 84.7223 20 83.5417C19.4444 82.4306 19.1847 81.2667 19.2208 80.05C19.2542 78.8362 19.5833 77.7084 20.2083 76.6667L23.75 70.8334H41.6667V87.5H26.3542ZM16.0417 75.625L9.27082 62.0834C8.64582 60.8334 8.35138 59.4973 8.38749 58.075C8.42082 56.65 8.81943 55.3125 9.58332 54.0625L11.25 51.25L4.16666 46.9792L26.9792 41.25L32.7083 64.1667L25.5208 59.7917L16.0417 75.625ZM72.2917 40L49.4792 34.2709L56.6667 30L43.6458 8.33337H58.3333C59.7917 8.33337 61.1639 8.69726 62.45 9.42504C63.7333 10.1556 64.7569 11.1459 65.5208 12.3959L70.9375 21.4584L78.0208 17.0834L72.2917 40Z" fill="url(#paint0_linear_4_126)"/>
</g>
<defs>
<linearGradient id="paint0_linear_4_126" x1="47.945" y1="8.33337" x2="47.945" y2="95.8334" gradientUnits="userSpaceOnUse">
<stop offset="0.348958" stop-color="#FF894B"/>
<stop offset="1" stop-color="#00FE38" stop-opacity="0.31"/>
</linearGradient>
</defs>
</svg>
