<svg width="100" height="100" viewBox="0 0 100 100" fill="none" xmlns="http://www.w3.org/2000/svg">
<mask id="mask0_4_114" style="mask-type:alpha" maskUnits="userSpaceOnUse" x="0" y="0" width="100" height="100">
<rect width="100" height="100" fill="#D9D9D9"/>
</mask>
<g mask="url(#mask0_4_114)">
<path d="M50 91.6666C44.9305 91.0416 39.8958 89.6694 34.8958 87.55C29.8958 85.4333 25.4333 82.3958 21.5083 78.4375C17.5861 74.4791 14.4097 69.4791 11.9791 63.4375C9.54859 57.3958 8.33331 50.1389 8.33331 41.6666V37.5H12.5C16.0416 37.5 19.6875 37.9514 23.4375 38.8541C27.1875 39.7569 30.6944 41.1111 33.9583 42.9166C34.7916 36.9444 36.6847 30.8153 39.6375 24.5291C42.5875 18.2458 46.0416 12.8472 50 8.33331C53.9583 12.8472 57.4139 18.2458 60.3666 24.5291C63.3166 30.8153 65.2083 36.9444 66.0416 42.9166C69.3055 41.1111 72.8125 39.7569 76.5625 38.8541C80.3125 37.9514 83.9583 37.5 87.5 37.5H91.6666V41.6666C91.6666 50.1389 90.4514 57.3958 88.0208 63.4375C85.5903 69.4791 82.4125 74.4791 78.4875 78.4375C74.5653 82.3958 70.1222 85.4333 65.1583 87.55C60.1916 89.6694 55.1389 91.0416 50 91.6666ZM49.7916 83.125C49.0278 71.5972 45.6083 62.8819 39.5333 56.9791C33.4555 51.0764 25.9028 47.4305 16.875 46.0416C17.6389 57.9166 21.1639 66.7708 27.45 72.6041C33.7333 78.4375 41.1805 81.9444 49.7916 83.125ZM50 56.6666C51.0416 55.1389 52.3097 53.5583 53.8041 51.925C55.2958 50.2944 56.7361 48.8889 58.125 47.7083C57.9861 43.75 57.2041 39.618 55.7791 35.3125C54.3569 31.0069 52.4305 26.8055 50 22.7083C47.5694 26.8055 45.643 31.0069 44.2208 35.3125C42.7958 39.618 42.0139 43.75 41.875 47.7083C43.2639 48.8889 44.7222 50.2944 46.25 51.925C47.7778 53.5583 49.0278 55.1389 50 56.6666ZM58.125 81.25C60.6944 80.4166 63.368 79.2014 66.1458 77.6041C68.9236 76.0069 71.5111 73.8361 73.9083 71.0916C76.3028 68.35 78.3514 64.9305 80.0541 60.8333C81.7541 56.7361 82.7778 51.8055 83.125 46.0416C76.5972 47.0139 70.868 49.1833 65.9375 52.55C61.0069 55.9194 57.2222 60.2083 54.5833 65.4166C55.4166 67.6389 56.1291 70.0694 56.7208 72.7083C57.3097 75.3472 57.7778 78.1944 58.125 81.25Z" fill="url(#paint0_linear_4_114)"/>
</g>
<defs>
<linearGradient id="paint0_linear_4_114" x1="50" y1="8.33331" x2="50" y2="91.6666" gradientUnits="userSpaceOnUse">
<stop offset="0.34375" stop-color="#FF894B"/>
<stop offset="1" stop-color="#00FE38" stop-opacity="0.19"/>
</linearGradient>
</defs>
</svg>
